#!OML:ASF Y:\EmotionMaleHayes\Project 1\Capture day 1\Session 1\Male1.ASF
:FULLY-SPECIFIED
:DEGREES
636
root -11.371 17.2737 1.30422 165.986 80.5972 152.765
lowerback 15.6282 2.21135 3.86153
upperback 9.42342 4.15161 4.68581
thorax 1.17192 2.40187 2.16124
lowerneck -19.024 -3.13608 4.89036
upperneck 30.8629 -7.9217 8.22573
head 13.9773 -1.31895 1.17057
rclavicle 3.18055e-014 1.43125e-014
rhumerus 2.23483 -5.04505 -66.1005
rradius 25.5616
rwrist 30.665
rhand -14.2856 -30.0942
rfingers 7.12502
rthumb 11.8537 -59.7387
lclavicle 3.18055e-014 1.43125e-014
lhumerus -41.3962 -13.8771 90.5573
lradius 24.4352
lwrist -2.46144
lhand -24.6213 -20.6154
lfingers 7.12502
lthumb 1.87728 9.35608
rfemur -12.5416 -13.4842 13.2601
rtibia 7.66559
rfoot -11.1605 -0.0270851
rtoes 24.1456
lfemur -18.6057 7.42524 -11.6655
ltibia 43.9005
lfoot -9.20381 7.5723
ltoes -0.101784
637
root -11.2861 17.2747 1.31127 164.693 80.6741 151.503
lowerback 15.3577 2.2986 3.72708
upperback 9.60416 4.23356 4.74304
thorax 1.49255 2.44421 2.30914
lowerneck -19.3059 -3.16378 4.81198
upperneck 30.8037 -7.99017 8.27584
head 14.0216 -1.34949 1.18667
rclavicle 5.08889e-014 -3.97569e-014
rhumerus 3.49009 -4.53034 -66.2435
rradius 26.0621
rwrist 28.2006
rhand -15.1798 -29.5431
rfingers 7.12502
rthumb 10.9914 -59.2353
lclavicle 5.08889e-014 -3.97569e-014
lhumerus -42.0816 -13.7857 91.2053
lradius 25.1254
lwrist -0.766912
lhand -24.9799 -20.6692
lfingers 7.12502
lthumb 1.531 9.30501
rfemur -12.1316 -13.1652 13.0711
rtibia 7.66787
rfoot -11.5316 0.0585677
rtoes 24.8878
lfemur -19.2041 7.64363 -12.2577
ltibia 43.2733
lfoot -9.67395 7.57812
ltoes -2.76891
638
root -11.2136 17.2791 1.32909 163.11 80.7518 149.924
lowerback 15.4436 2.42388 3.6125
upperback 9.55145 4.38178 4.68893
thorax 1.38415 2.51009 2.2875
lowerneck -19.2887 -3.16549 4.85207
upperneck 30.6835 -7.97394 8.19762
head 13.9571 -1.35859 1.14798
rclavicle 3.18055e-014 5.40694e-014
rhumerus 4.27042 -4.25735 -66.5691
rradius 26.6473
rwrist 25.6999
rhand -16.0804 -29.4211
rfingers 7.12502
rthumb 10.1226 -59.1576
lclavicle 3.18055e-014 5.40694e-014
lhumerus -43.1256 -13.9545 91.8566
lradius 25.9031
lwrist 0.617098
lhand -25.2291 -20.773
lfingers 7.12502
lthumb 1.29032 9.20288
rfemur -11.8509 -12.3971 12.8951
rtibia 7.62828
rfoot -11.8732 -0.526618
rtoes 23.4729
lfemur -19.972 7.78798 -12.8507
ltibia 42.6543
lfoot -10.1762 7.55567
ltoes -4.65947
639
root -11.1394 17.2817 1.34261 161.944 80.7429 148.716
lowerback 15.4836 2.50468 3.63138
upperback 9.42474 4.48229 4.61229
thorax 1.23341 2.55484 2.17316
lowerneck -19.1561 -3.23616 4.88156
upperneck 30.6316 -8.01533 8.03991
head 13.893 -1.40172 1.07278
rclavicle 9.54166e-015 -9.54166e-014
rhumerus 4.86538 -3.73068 -66.9034
rradius 27.3057
rwrist 22.4634
rhand -15.8827 -30.4325
rfingers 7.12502
rthumb 10.3133 -60.1596
lclavicle 9.54166e-015 -9.54166e-014
lhumerus -44.3235 -14.2581 92.6093
lradius 26.7544
lwrist 1.94209
lhand -25.3999 -20.8609
lfingers 7.12502
lthumb 1.12533 9.11589
rfemur -11.578 -12.4379 12.7795
rtibia 7.48958
rfoot -11.9133 -0.613311
rtoes 21.3436
lfemur -20.7716 7.67911 -13.4725
ltibia 41.935
lfoot -10.7664 7.58214
ltoes -4.17192
640
root -11.056 17.2813 1.34747 161.762 80.8021 148.51
lowerback 15.5759 2.56295 3.98802
upperback 9.18695 4.59523 4.47597
thorax 0.968945 2.61438 1.79838
lowerneck -18.9653 -3.37736 4.814
upperneck 30.6375 -8.2103 8.19606
head 13.8729 -1.46948 1.1171
rclavicle 0 5.24792e-014
rhumerus 5.1438 -2.82662 -67.2356
rradius 28.4579
rwrist 18.1208
rhand -15.0694 -31.8973
rfingers 7.12502
rthumb 11.0978 -61.5839
lclavicle 0 5.24792e-014
lhumerus -45.7697 -14.7318 93.392
lradius 27.7197
lwrist 3.28482
lhand -25.6069 -21.0348
lfingers 7.12502
lthumb 0.925401 8.94299
rfemur -11.2184 -12.8075 12.799
rtibia 7.3773
rfoot -11.9466 -0.0749954
rtoes 21.2773
lfemur -21.4831 7.67011 -13.9542
ltibia 41.1423
lfoot -11.259 7.65896
ltoes -4.58829
641
root -10.9736 17.281 1.35702 162.09 80.7732 148.819
lowerback 15.3477 2.60814 4.22201
upperback 9.17562 4.66429 4.45448
thorax 1.09755 2.65781 1.65047
lowerneck -18.9977 -3.48918 4.74148
upperneck 30.5466 -8.3718 8.28377
head 13.854 -1.53898 1.1341
rclavicle -6.52014e-014 -1.00187e-013
rhumerus 5.74323 -2.14083 -67.472
rradius 29.5444
rwrist 14.0208
rhand -14.6951 -32.6859
rfingers 7.12502
rthumb 11.4588 -62.3527
lclavicle -6.52014e-014 -1.00187e-013
lhumerus -46.7666 -15.0275 94.181
lradius 28.6183
lwrist 4.28212
lhand -25.6587 -20.9014
lfingers 7.12502
lthumb 0.875396 9.07654
rfemur -10.8295 -12.8386 12.8379
rtibia 7.24061
rfoot -12.0574 0.135653
rtoes 21.8967
lfemur -22.2901 7.67472 -14.3836
ltibia 40.3583
lfoot -11.5845 7.72694
ltoes -5.30151
642
root -10.8902 17.2822 1.36563 162.415 80.675 149.2
lowerback 15.5097 2.61164 4.5755
upperback 8.98747 4.71857 4.35431
thorax 0.849756 2.68945 1.32269
lowerneck -19.0367 -3.60392 4.82713
upperneck 30.6367 -8.54445 8.20021
head 13.8975 -1.60334 1.05904
rclavicle -8.5875e-014 -9.54166e-014
rhumerus 6.09158 -1.7022 -67.8395
rradius 30.211
rwrist 11.028
rhand -14.628 -32.7
rfingers 7.12502
rthumb 11.5235 -62.3632
lclavicle -8.5875e-014 -9.54166e-014
lhumerus -47.9519 -15.2834 94.9191
lradius 29.4658
lwrist 5.12522
lhand -25.4129 -20.9376
lfingers 7.12502
lthumb 1.11276 9.03928
rfemur -10.3766 -13.0116 12.8491
rtibia 7.09738
rfoot -12.1531 0.302899
rtoes 21.7265
lfemur -22.9817 7.5816 -14.8244
ltibia 39.4935
lfoot -12.0817 7.66854
ltoes -4.6964
643
root -10.8075 17.2857 1.37576 162.486 80.7591 149.404
lowerback 15.575 2.65498 4.77243
upperback 8.93555 4.80368 4.33261
thorax 0.77977 2.73624 1.17264
lowerneck -18.9382 -3.62368 4.88849
upperneck 30.5225 -8.5455 8.10903
head 13.8163 -1.62054 1.01076
rclavicle 3.33958e-014 6.04305e-014
rhumerus 6.51818 -1.07684 -68.121
rradius 31.1981
rwrist 7.84912
rhand -14.533 -32.6723
rfingers 7.12502
rthumb 11.6151 -62.3304
lclavicle 3.33958e-014 6.04305e-014
lhumerus -48.9249 -15.4124 95.6861
lradius 30.2103
lwrist 6.05727
lhand -25.1065 -21.4089
lfingers 7.12502
lthumb 1.40872 8.56616
rfemur -9.86419 -12.6852 12.8985
rtibia 6.95956
rfoot -12.4725 0.292229
rtoes 22.1505
lfemur -23.5326 7.54667 -15.1506
ltibia 38.5315
lfoot -12.5747 7.6161
ltoes -4.11702
644
root -10.7291 17.2902 1.38771 163.058 80.8598 150.093
lowerback 15.6332 2.7019 4.9515
upperback 8.90857 4.89466 4.36615
thorax 0.734509 2.78609 1.09112
lowerneck -18.8862 -3.65211 4.91473
upperneck 30.375 -8.55037 8.00392
head 13.7313 -1.64816 0.960593
rclavicle 1.17681e-013 7.79236e-014
rhumerus 6.89624 -0.542208 -68.4188
rradius 32.7077
rwrist 3.79329
rhand -14.4697 -32.8829
rfingers 7.12502
rthumb 11.6762 -62.5376
lclavicle 1.17681e-013 7.79236e-014
lhumerus -49.8678 -15.7164 96.6802
lradius 31.2817
lwrist 7.0964
lhand -24.8059 -20.4328
lfingers 7.12502
lthumb 1.69905 9.54017
rfemur -9.38804 -12.2668 13.0786
rtibia 6.83593
rfoot -12.8363 0.118765
rtoes 22.1356
lfemur -24.2026 7.5011 -15.4031
ltibia 37.576
lfoot -12.6955 7.70179
ltoes -4.73063
645
root -10.6458 17.2923 1.39693 164.079 80.8402 151.229
lowerback 15.6298 2.62222 5.10493
upperback 8.9137 4.81778 4.45796
thorax 0.74606 2.75393 1.11398
lowerneck -19.0247 -3.60996 4.91303
upperneck 30.4252 -8.44547 7.76449
head 13.7618 -1.6341 0.881475
rclavicle -9.54166e-015 4.13472e-014
rhumerus 7.56934 0.108624 -68.7265
rradius 33.8014
rwrist -0.207734
rhand -14.8392 -32.0081
rfingers 7.12502
rthumb 11.3198 -61.6826
lclavicle -9.54166e-015 4.13472e-014
lhumerus -50.6093 -15.5448 97.5494
lradius 32.1693
lwrist 7.78921
lhand -24.2407 -20.2797
lfingers 7.12502
lthumb 2.24488 9.68826
rfemur -8.85237 -12.2702 13.2749
rtibia 6.66382
rfoot -13.0764 0.120121
rtoes 21.891
lfemur -24.8449 7.34098 -15.6795
ltibia 36.5754
lfoot -12.7987 7.75252
ltoes -5.14384
646
root -10.5602 17.2911 1.40592 164.808 80.916 152.078
lowerback 15.6113 2.66636 5.32743
upperback 8.83934 4.90221 4.47245
thorax 0.696356 2.79953 0.992046
lowerneck -18.8349 -3.66573 4.96215
upperneck 30.3205 -8.49074 7.70657
head 13.6696 -1.66713 0.843629
rclavicle -1.43125e-014 -1.11319e-014
rhumerus 8.10224 0.203402 -69.1322
rradius 34.9163
rwrist -1.95455
rhand -12.1614 -33.8785
rfingers 7.12502
rthumb 13.9014 -63.3939
lclavicle -1.43125e-014 -1.11319e-014
lhumerus -51.4735 -15.5849 98.3663
lradius 32.891
lwrist 8.24215
lhand -23.5926 -20.684
lfingers 7.12502
lthumb 2.87084 9.27645
rfemur -8.28504 -12.054 13.4638
rtibia 6.40685
rfoot -13.3207 0.0134181
rtoes 21.9006
lfemur -25.3744 7.11786 -15.9304
ltibia 35.4727
lfoot -13.0404 7.77966
ltoes -4.26049
